<svg xmlns="http://www.w3.org/2000/svg" version="1.1" xmlns:xlink="http://www.w3.org/1999/xlink" width="512" height="512" x="0" y="0" viewBox="0 0 512 512" style="enable-background:new 0 0 512 512" xml:space="preserve" class=""><g><path d="M504.426 84.652h-28l-5.723-3.816c7.172-26.484 10.508-54.094 3.367-75.64A7.568 7.568 0 0 0 465.25.18c-41.293 9.093-75.668 37.234-97.234 59.238a314.115 314.115 0 0 0-4.825 5.035H292.93c-12.817 0-24.864 4.992-33.922 14.055L256 81.516l-3.012-3.012c-9.058-9.059-21.105-14.05-33.918-14.05H68.164a7.582 7.582 0 0 0-4.2 1.273L35.579 84.652H7.574A7.574 7.574 0 0 0 0 92.227v347.39a7.574 7.574 0 0 0 7.574 7.574h225.703v2.528a7.574 7.574 0 0 0 7.575 7.574h30.296a7.574 7.574 0 0 0 7.575-7.574v-2.528h225.703a7.574 7.574 0 0 0 7.574-7.574V92.223c0-4.18-3.39-7.57-7.574-7.57zM71.305 386.598h142.879c11.148 0 21.632 5.8 27.664 15.148H56.156zm198.847 15.148c6.032-9.348 16.52-15.148 27.664-15.148h142.88l15.148 15.148zm196.016-305.73.387.261v294.758l-15.149-15.148V134.336c4.973-11.297 10.239-24.441 14.762-38.32zm-4.688-79.274c10.168 50.137-34.484 134.285-40.574 145.442l-32.207 26.12a7.575 7.575 0 0 0 2.813 13.204l9.43 2.52-33.657 45.046-43.219 16.809c19.801-59.09 52.801-136.004 105.457-206.492a7.574 7.574 0 0 0-1.535-10.602 7.57 7.57 0 0 0-10.597 1.535c-51.625 69.106-84.73 144.16-105.164 203.352l-15.864-52.43 21.93-51.14 6.902 6.902a7.582 7.582 0 0 0 7.696 1.847 7.579 7.579 0 0 0 5.14-6.015l6.48-40.824c6.626-10.024 53.044-77.211 116.97-95.274zm-168.55 62.86h56.925c-11.902 14.39-18.597 24.988-18.992 25.613a7.615 7.615 0 0 0-1.062 2.836l-4.403 27.738-4.304-4.305a7.58 7.58 0 0 0-6.79-2.082 7.585 7.585 0 0 0-5.527 4.453l-9.215 21.489H288.82a7.574 7.574 0 0 0-7.574 7.574c0 4.18 3.39 7.574 7.574 7.574h4.25l-11.715 27.32a7.579 7.579 0 0 0-.289 5.18l10.024 33.14h-2.27a7.574 7.574 0 0 0-7.574 7.575c0 4.18 3.39 7.574 7.574 7.574h6.852l7.637 25.246H288.82a7.574 7.574 0 0 0-7.574 7.575 7.574 7.574 0 0 0 7.574 7.574h11.258a805.215 805.215 0 0 0-6.992 25.246h-4.266c-4.183 0-7.574 3.39-7.574 7.574s3.39 7.574 7.574 7.574h121.184c4.18 0 7.57-3.39 7.57-7.574s-3.39-7.574-7.57-7.574H308.746a826.547 826.547 0 0 1 7.133-25.246h94.125a7.574 7.574 0 0 0 7.574-7.574 7.574 7.574 0 0 0-7.574-7.575h-71.508l36.3-14.12a7.556 7.556 0 0 0 3.325-2.524l6.426-8.602h25.457a7.574 7.574 0 0 0 7.574-7.574 7.574 7.574 0 0 0-7.574-7.574h-14.14l23.91-31.996a7.575 7.575 0 0 0 1.085-7.016 7.563 7.563 0 0 0-5.199-4.836l-5.879-1.574 21.813-17.691a7.565 7.565 0 0 0 1.824-2.157c.281-.5 1.3-2.32 2.844-5.215v205.805H297.816a47.869 47.869 0 0 0-34.242 14.371V95.364l6.145-6.145c6.199-6.203 14.445-9.617 23.21-9.617zm-50.653 9.613 6.149 6.148V385.82c-8.93-9.117-21.207-14.367-34.242-14.367H75.738V79.602H219.07c8.766 0 17.008 3.414 23.207 9.613zM45.445 96.277 60.594 86.18v289.707l-15.149 15.148zm-30.297 3.52h15.149V409.32c0 4.125 3.441 7.575 7.574 7.575h195.406v15.148H15.148zM263.574 442.14h-15.148v-25.246h15.148zm233.278-10.098h-218.13v-15.148H474.13c4.133 0 7.574-3.45 7.574-7.575V99.797h15.149zm0 0" fill="#201f5e" opacity="1" data-original="#000000" class=""></path><path d="M122.7 130.094h79.777a7.574 7.574 0 0 0 7.574-7.574 7.574 7.574 0 0 0-7.574-7.575h-79.778a7.574 7.574 0 0 0-7.574 7.575 7.574 7.574 0 0 0 7.574 7.574zM101.996 170.488H223.18a7.574 7.574 0 0 0 7.574-7.574c0-4.18-3.39-7.574-7.574-7.574H101.996a7.576 7.576 0 0 0-7.574 7.574 7.574 7.574 0 0 0 7.574 7.574zM101.996 210.883H223.18c4.183 0 7.574-3.39 7.574-7.574s-3.39-7.575-7.574-7.575H101.996c-4.183 0-7.574 3.391-7.574 7.575s3.39 7.574 7.574 7.574zM101.996 251.277H223.18c4.183 0 7.574-3.39 7.574-7.574s-3.39-7.574-7.574-7.574H101.996c-4.183 0-7.574 3.39-7.574 7.574s3.39 7.574 7.574 7.574zM101.996 291.672H223.18c4.183 0 7.574-3.39 7.574-7.574s-3.39-7.575-7.574-7.575H101.996c-4.183 0-7.574 3.391-7.574 7.575s3.39 7.574 7.574 7.574zM223.18 316.918H101.996a7.574 7.574 0 0 0-7.574 7.574 7.574 7.574 0 0 0 7.574 7.574H223.18a7.574 7.574 0 0 0 7.574-7.574 7.574 7.574 0 0 0-7.574-7.574zm0 0" fill="#201f5e" opacity="1" data-original="#000000" class=""></path></g></svg>