<svg xmlns="http://www.w3.org/2000/svg" version="1.1" xmlns:xlink="http://www.w3.org/1999/xlink" width="512" height="512" x="0" y="0" viewBox="0 0 512 512" style="enable-background:new 0 0 512 512" xml:space="preserve" class=""><g><path d="M402.071 286.213c-24.825 0-47.117 10.991-62.312 28.345-7.629-20.084-27.066-34.4-49.792-34.4h-13.715v-.983l17.771-14.271c19.243-15.454 30.304-38.473 30.345-63.155l.01-5.572c12.517-1.851 22.154-12.663 22.154-25.686v-7.918h8.03c5.74 0 10.876-3.426 13.085-8.726a14.11 14.11 0 0 0-3.006-15.401c-5.832-5.885-15.278-11.169-27.467-15.664a673.966 673.966 0 0 0-5.532-28.035 7.5 7.5 0 0 0-8.934-5.717 7.499 7.499 0 0 0-5.717 8.933 662.517 662.517 0 0 1 4.017 19.742c-26.034-6.961-60.042-11.031-96.838-11.031-36.794 0-70.8 4.069-96.834 11.029 2.292-12.186 6.12-30.686 11.207-48.718 11.899-42.18 21.88-51.21 25.619-53.133.936-.482 6.626-2.624 26.729 2.57 21.459 5.543 45.096 5.543 66.556 0 20.105-5.193 25.793-3.052 26.729-2.57 3.514 1.808 12.908 10.136 24.229 48.322a7.498 7.498 0 0 0 9.322 5.058 7.498 7.498 0 0 0 5.058-9.322C308.421 11.46 295.338 4.727 291.04 2.514c-7.292-3.753-19.158-3.313-37.344 1.385-19.041 4.917-40.013 4.918-59.053 0-18.184-4.697-30.051-5.138-37.345-1.385-4.511 2.321-18.237 9.385-33.192 62.399-6.445 22.848-10.839 45.83-12.942 57.867-12.188 4.494-21.634 9.779-27.465 15.663a14.108 14.108 0 0 0-3.006 15.402 14.14 14.14 0 0 0 13.085 8.726h8.03v7.918c0 13.022 9.635 23.833 22.151 25.686l.012 9.882.004 3.682c.023 19.602 8.801 37.88 24.083 50.148l24.03 19.292v.978h-13.715c-27.227 0-49.733 20.545-52.864 46.944l-14.787 2.746a7.219 7.219 0 0 0-.749.18c-18.293 5.386-33.999 16.305-45.422 31.575-11.422 15.271-17.46 33.422-17.46 52.492v1.235a7.5 7.5 0 0 0 15 0v-1.235c0-15.806 5.004-30.85 14.472-43.507 9.392-12.557 22.279-21.563 37.287-26.064l16.327-3.033 37.51 36.472-8.34 21.022a13.845 13.845 0 0 0 4.705 16.289l72.617 53.029v28.678H98.176v-60.997a7.5 7.5 0 0 0-15 0v60.997H45.179a3.09 3.09 0 0 1-3.085-3.086v-43.359a7.5 7.5 0 0 0-15 0v43.359c0 9.972 8.113 18.085 18.085 18.085h239.619c.148.004.293.021.441.021s.293-.017.441-.021h117.482c9.972 0 18.085-8.113 18.085-18.085v-44.268c36.458-8.678 63.662-41.498 63.662-80.575.001-45.676-37.161-82.838-82.838-82.838zm-112.105 8.944c20.064 0 36.57 15.53 38.13 35.2l-38.452 37.388a13.81 13.81 0 0 0-3.218 15.034l8.296 20.907-52.842 38.589 47.192-109.844c2.677-6.229.325-13.466-5.469-16.83-4.122-2.395-7.351-8.37-7.351-13.601v-6.843h13.714zm-15.209 32.595-6.626 15.421c-28.465 10.966-59.455 10.966-87.92 0l-6.626-15.422c8.016-5.361 13.505-15.715 13.505-25.752v-10.777l3.83 3.075a31.502 31.502 0 0 0 19.659 6.916h27.181a31.507 31.507 0 0 0 19.66-6.916l3.831-3.077V302c0 10.037 5.488 20.39 13.506 25.752zm56.775-157.262c0 4.697-2.973 8.702-7.132 10.263l.009-18.181h7.123v7.918zm-214.723 0v-7.918h7.123l.009 18.181c-4.158-1.561-7.132-5.566-7.132-10.263zm-20.907-22.917c7.871-6.717 23.916-13.104 44.619-17.702 24.142-5.362 53.068-8.196 83.65-8.196 30.582 0 59.508 2.834 83.65 8.196 20.703 4.598 36.747 10.984 44.619 17.702H95.902zm61.549 100.618c-11.723-9.411-18.456-23.433-18.474-38.469l-.004-3.683c-.015-12.44-.033-42.667-.04-43.467H309.41c-.004.376-.023 28.39-.042 39.151-.034 20.121-9.05 38.888-24.738 51.486l-20.632 16.569-.026.021-15.943 12.803a16.454 16.454 0 0 1-10.268 3.611H210.58a16.452 16.452 0 0 1-10.268-3.612l-42.861-34.41zm-3.831 155.495 8.295-20.906a13.806 13.806 0 0 0-3.218-15.035l-38.452-37.388c1.56-19.67 18.066-35.2 38.131-35.2h13.715V302c0 5.231-3.229 11.206-7.348 13.6-5.797 3.365-8.149 10.602-5.472 16.831l47.193 109.844-52.844-38.589zm34.479-42.151c11.843 3.245 23.957 4.871 36.072 4.871s24.229-1.626 36.072-4.871l-36.072 83.959-36.072-83.959zm43.571 135.447v-28.679l72.618-53.029a13.85 13.85 0 0 0 4.704-16.289l-8.341-21.022 19.171-18.64a83.135 83.135 0 0 0-.591 9.73c0 20.144 7.234 38.626 19.232 53.001l-11.383 11.383-.49-.49a14.435 14.435 0 0 0-10.275-4.257c-3.881 0-7.53 1.512-10.274 4.256l-42.665 42.665a14.435 14.435 0 0 0-4.255 10.274c0 3.882 1.512 7.531 4.256 10.274l.823.823h-32.53zm53.569-.174-10.924-10.924 42.001-42.001 10.924 10.923-42.001 42.002zm64.926-60.823v60.997h-43.887l31.899-31.9a14.432 14.432 0 0 0 4.256-10.275c0-3.881-1.512-7.53-4.256-10.274l-.49-.49 11.382-11.383c.466.389.945.764 1.42 1.143a7.524 7.524 0 0 0-.324 2.182zm56.083 57.91a3.09 3.09 0 0 1-3.086 3.086h-37.998v-53.795a82.311 82.311 0 0 0 36.906 8.706c1.401 0 2.793-.037 4.178-.106v42.109zm-4.177-57.002c-37.407 0-67.84-30.433-67.84-67.841a67.413 67.413 0 0 1 8.064-32.044l.024-.046c11.466-21.264 33.947-35.749 59.752-35.749 37.407 0 67.84 30.433 67.84 67.84 0 37.407-30.433 67.84-67.84 67.84z" fill="#201f5e" opacity="1" data-original="#000000" class=""></path><path d="M402.071 313.022c-30.896 0-56.031 25.136-56.031 56.031 0 30.896 25.136 56.032 56.031 56.032s56.031-25.137 56.031-56.033c0-30.895-25.136-56.03-56.031-56.03zm0 97.063c-22.625 0-41.032-18.407-41.032-41.032s18.407-41.031 41.032-41.031 41.032 18.406 41.032 41.031c0 22.624-18.407 41.032-41.032 41.032z" fill="#201f5e" opacity="1" data-original="#000000" class=""></path></g></svg>