<svg xmlns="http://www.w3.org/2000/svg" version="1.1" xmlns:xlink="http://www.w3.org/1999/xlink" width="512" height="512" x="0" y="0" viewBox="0 0 512 512" style="enable-background:new 0 0 512 512" xml:space="preserve" class=""><g><path d="m230.017 41.228 19.964-22.806a8.002 8.002 0 0 1 12.04 0l19.965 22.805a8 8 0 0 1-12.039 10.539L264 44.975v58.37c30.88 1.452 60.49 11.303 86.092 28.711a8 8 0 0 1-4.505 14.616 7.965 7.965 0 0 1-4.491-1.385c-25.141-17.094-54.566-26.13-85.096-26.13a8 8 0 0 1-8-8V44.976l-5.944 6.791a7.98 7.98 0 0 1-6.022 2.73 8 8 0 0 1-6.017-13.269zM508.27 264.671l-22.806-19.964a8 8 0 1 0-10.539 12.039l6.791 5.945h-66.182a8 8 0 0 0-8 8c0 30.528-9.035 59.954-26.13 85.095a8.001 8.001 0 0 0 6.608 12.499 7.992 7.992 0 0 0 6.622-3.503c17.407-25.601 27.259-55.215 28.712-86.091h58.37l-6.791 5.945a8 8 0 0 0 10.539 12.038l22.805-19.965a8 8 0 0 0 .001-12.038zm-71.641 149.902a8 8 0 0 0-15.965 1.061l.598 9.005-46.797-46.797a7.997 7.997 0 0 0-11.314.001 153.133 153.133 0 0 1-11.185 10.129 8 8 0 1 0 10.139 12.377 168.257 168.257 0 0 0 6.568-5.671l41.276 41.276-9.006-.598a7.995 7.995 0 0 0-8.513 7.452 8 8 0 0 0 7.452 8.513l30.242 2.009a8.003 8.003 0 0 0 6.187-2.325 8.002 8.002 0 0 0 2.325-6.187zM37.075 284.636l-6.791-5.945h66.183a8 8 0 0 0 8-8c0-30.529 9.035-59.955 26.129-85.096a8 8 0 1 0-13.23-8.996c-17.408 25.602-27.259 55.212-28.711 86.092H30.284l6.792-5.945a8 8 0 0 0-10.539-12.039L3.73 264.672a8.002 8.002 0 0 0 0 12.04l22.806 19.964a7.968 7.968 0 0 0 5.267 1.98 8.002 8.002 0 0 0 5.272-14.02zm38.296-157.827a8 8 0 0 0 15.965-1.061l-.598-9.005 46.797 46.797a8.002 8.002 0 0 0 11.314 0c21.606-21.607 48.802-36.03 78.646-41.708a8 8 0 0 0-2.99-15.718c-30.396 5.783-58.302 19.76-81.18 40.588l-41.274-41.274 9.006.598c4.397.288 8.22-3.043 8.513-7.452a8 8 0 0 0-7.452-8.513l-30.243-2.008a8.002 8.002 0 0 0-8.513 8.513zm31.771 172.386a8 8 0 0 0-15.718 2.991c5.784 30.396 19.761 58.301 40.589 81.18L90.738 424.64l.598-9.006a8 8 0 0 0-7.452-8.513c-4.392-.28-8.22 3.043-8.513 7.452l-2.009 30.243a8.006 8.006 0 0 0 2.325 6.187 8.004 8.004 0 0 0 6.187 2.325l30.243-2.009a8 8 0 0 0 7.452-8.513 7.99 7.99 0 0 0-8.513-7.452l-9.006.598 46.798-46.798a8 8 0 0 0 0-11.313c-21.606-21.606-36.028-48.801-41.706-78.646zm297.716-57.008a8.003 8.003 0 0 0 9.355 6.363 8 8 0 0 0 6.364-9.354c-5.784-30.396-19.764-58.303-40.588-81.18l41.273-41.274-.598 9.007a8 8 0 0 0 7.99 8.53 8 8 0 0 0 7.975-7.47l2.008-30.243a8.003 8.003 0 0 0-8.513-8.513l-30.242 2.009a8 8 0 0 0-7.452 8.513 7.997 7.997 0 0 0 8.513 7.452l9.005-.598-46.798 46.798a8 8 0 0 0 .001 11.314c21.607 21.605 36.029 48.801 41.707 78.646zm-79.989 144.312c-5.571 3.32-8.64 8.719-8.64 15.202v30.897c0 11.221-7.312 20.761-17.42 24.122v5.889c0 18.582-15.116 33.699-33.697 33.699h-18.225c-18.581 0-33.697-15.118-33.697-33.699v-5.889c-10.107-3.361-17.419-12.901-17.419-24.122v-30.897c0-6.483-3.068-11.882-8.641-15.202a135.504 135.504 0 0 1-47.705-48.241c-11.869-20.438-18.143-43.803-18.143-67.567 0-74.283 60.434-134.716 134.717-134.716s134.718 60.433 134.718 134.716c0 23.764-6.274 47.128-18.144 67.567a135.485 135.485 0 0 1-47.704 48.241zm-42.059 76.11v-4.592h-53.62v4.592c0 9.759 7.938 17.699 17.697 17.699h18.225c9.759.001 17.698-7.939 17.698-17.699zm17.419-30.011v-11.465h-88.458v11.465c0 5.194 4.226 9.419 9.419 9.419h69.619c5.195.001 9.42-4.225 9.42-9.419zm-66.846-155.57c0-8.398-6.833-15.231-15.231-15.231s-15.231 6.833-15.231 15.231c0 9.426 11.788 19.645 30.463 24.394v-24.394zm29.234 42.918a118.27 118.27 0 0 1-13.234 0v85.187h13.234zm112.101-49.255c0-65.46-53.257-118.716-118.718-118.716s-118.717 53.256-118.717 118.716c0 41.625 22.238 80.733 58.037 102.063 10.455 6.229 16.451 16.78 16.451 28.947v3.432h21.611v-87.278c-27.306-5.721-46.463-21.62-46.463-40.826 0-17.221 14.011-31.231 31.231-31.231s31.231 14.01 31.231 31.231v26.887c4.307.285 8.928.285 13.234 0v-26.887c0-17.221 14.011-31.231 31.231-31.231s31.231 14.01 31.231 31.231c0 19.206-19.157 35.105-46.463 40.826v87.278h21.612v-3.432c0-12.167 5.996-22.718 16.45-28.947 35.803-21.33 58.042-60.439 58.042-102.063zm-65.638 6.337c0-8.398-6.833-15.231-15.231-15.231s-15.231 6.833-15.231 15.231v24.394c18.674-4.749 30.462-14.967 30.462-24.394z" fill="#201f5e" opacity="1" data-original="#000000" class=""></path></g></svg>