<svg fill="#201F5E" height="200px" width="200px" version="1.1" id="Layer_1" xmlns="http://www.w3.org/2000/svg" xmlns:xlink="http://www.w3.org/1999/xlink" viewBox="0 0 512.154 512.154" xml:space="preserve" stroke="#201F5E"><g id="SVGRepo_bgCarrier" stroke-width="0"></g><g id="SVGRepo_tracerCarrier" stroke-linecap="round" stroke-linejoin="round"></g><g id="SVGRepo_iconCarrier"> <g transform="translate(0 1)"> <g> <g> <path d="M505.925,242.06c-18.224-18.224-52.936-39.051-115.417-39.051h-2.512l-19.183-48.597 c-9.546-23.43-31.241-38.183-56.407-38.183h-19.091h-24.298V90.195h8.678l8.678-8.678V46.806l-8.678-8.678h-34.712l-8.678,8.678 v34.712l8.678,8.678h8.678v26.034h-23.43h-19.959c-25.166,0-46.861,14.753-56.407,38.183l-19.183,48.597h-2.512 c-63.349,0-97.193,21.695-115.417,39.051c-5.207,5.207-6.942,13.017-5.207,19.959s7.81,13.017,14.753,14.753l100.564,29.476 l39.039,46.613l-50.219,133.918c-0.868,2.603-0.868,5.207,0.868,7.81c1.736,1.736,4.339,3.471,6.942,3.471h277.695 c2.603,0,5.207-1.736,6.942-3.471c1.736-1.736,1.736-5.207,0.868-7.81l-50.244-133.984l39.396-47.752l100.232-28.27 c6.942-1.736,13.017-6.942,14.753-14.753C513.736,255.077,511.132,247.267,505.925,242.06z M251.661,55.484h17.356v17.356 h-17.356V55.484z M312.407,133.585c17.356,0,32.976,10.414,39.051,26.902l17.356,42.522h-50.188l-20.249-69.424H312.407z M279.43,133.585l20.827,69.424h-80.705l20.827-69.424H279.43z M168.353,160.487c6.075-16.488,22.563-26.902,39.919-26.902 h14.753l-20.827,69.424h-50.332L168.353,160.487z M343.647,341.856H177.898l-28.828-34.712h223.215L343.647,341.856z M133.641,480.704l45.993-121.492h161.41l45.125,121.492H133.641z M492.908,260.284l-103.689,29.505H132.327L28.637,260.284 c-1.736,0-2.603-1.736-2.603-2.603s0-2.603,0.868-3.471c15.62-15.62,45.993-33.844,103.268-33.844h66.82h126.698h66.82 c57.275,0,87.647,18.224,104.136,33.844c0.868,0.868,0.868,2.603,0.868,3.471S494.644,259.416,492.908,260.284z"></path> <path d="M260.339,385.246c-5.207,0-8.678,3.471-8.678,8.678c0,5.207,3.471,8.678,8.678,8.678s8.678-3.471,8.678-8.678 C269.017,388.717,265.546,385.246,260.339,385.246z"></path> <path d="M260.339,419.958c-5.207,0-8.678,3.471-8.678,8.678v17.356c0,5.207,3.471,8.678,8.678,8.678s8.678-3.471,8.678-8.678 v-17.356C269.017,423.429,265.546,419.958,260.339,419.958z"></path> <path d="M329.763,385.246c-5.207,0-8.678,3.471-8.678,8.678c0,5.207,3.471,8.678,8.678,8.678c5.207,0,8.678-3.471,8.678-8.678 C338.441,388.717,334.969,385.246,329.763,385.246z"></path> <path d="M329.763,419.958c-5.207,0-8.678,3.471-8.678,8.678v17.356c0,5.207,3.471,8.678,8.678,8.678 c5.207,0,8.678-3.471,8.678-8.678v-17.356C338.441,423.429,334.969,419.958,329.763,419.958z"></path> <path d="M190.915,385.246c-5.207,0-8.678,3.471-8.678,8.678c0,5.207,3.471,8.678,8.678,8.678c5.207,0,8.678-3.471,8.678-8.678 C199.593,388.717,196.122,385.246,190.915,385.246z"></path> <path d="M147.525,246.399c-5.207,0-8.678,3.471-8.678,8.678s3.471,8.678,8.678,8.678c5.207,0,8.678-3.471,8.678-8.678 S152.732,246.399,147.525,246.399z"></path> <path d="M190.915,246.399c-5.207,0-8.678,3.471-8.678,8.678s3.471,8.678,8.678,8.678c5.207,0,8.678-3.471,8.678-8.678 S196.122,246.399,190.915,246.399z"></path> <path d="M234.305,246.399c-5.207,0-8.678,3.471-8.678,8.678s3.471,8.678,8.678,8.678c5.207,0,8.678-3.471,8.678-8.678 S239.512,246.399,234.305,246.399z"></path> <path d="M277.695,246.399c-5.207,0-8.678,3.471-8.678,8.678s3.471,8.678,8.678,8.678c5.207,0,8.678-3.471,8.678-8.678 S282.902,246.399,277.695,246.399z"></path> <path d="M321.085,246.399c-5.207,0-8.678,3.471-8.678,8.678s3.471,8.678,8.678,8.678c5.207,0,8.678-3.471,8.678-8.678 S326.292,246.399,321.085,246.399z"></path> <path d="M364.475,246.399c-5.207,0-8.678,3.471-8.678,8.678s3.471,8.678,8.678,8.678c5.207,0,8.678-3.471,8.678-8.678 S369.681,246.399,364.475,246.399z"></path> <path d="M190.915,419.958c-5.207,0-8.678,3.471-8.678,8.678v17.356c0,5.207,3.471,8.678,8.678,8.678 c5.207,0,8.678-3.471,8.678-8.678v-17.356C199.593,423.429,196.122,419.958,190.915,419.958z"></path> <path d="M442.576,72.839c5.207,0,8.678-3.471,8.678-8.678c0-5.207-3.471-8.678-8.678-8.678c-5.207,0-8.678,3.471-8.678,8.678 C433.898,69.368,437.37,72.839,442.576,72.839z"></path> <path d="M494.644,350.534c-5.207,0-8.678,3.471-8.678,8.678c0,5.207,3.471,8.678,8.678,8.678c5.207,0,8.678-3.471,8.678-8.678 C503.322,354.006,499.851,350.534,494.644,350.534z"></path> <path d="M8.678,445.992c-5.207,0-8.678,3.471-8.678,8.678c0,5.207,3.471,8.678,8.678,8.678s8.678-3.471,8.678-8.678 C17.356,449.463,13.885,445.992,8.678,445.992z"></path> <path d="M8.678,72.839h13.885L43.39,93.667v13.885c0,5.207,3.471,8.678,8.678,8.678s8.678-3.471,8.678-8.678V93.667 l20.827-20.827h13.885c5.207,0,8.678-3.471,8.678-8.678c0-5.207-3.471-8.678-8.678-8.678H81.573L60.746,34.656V20.772 c0-5.207-3.471-8.678-8.678-8.678s-8.678,3.471-8.678,8.678v13.885L22.563,55.484H8.678C3.471,55.484,0,58.955,0,64.162 C0,69.368,3.471,72.839,8.678,72.839z M52.068,50.277l13.885,13.885L52.068,78.046L38.183,64.162L52.068,50.277z"></path> </g> </g> </g> </g></svg>